# xmcd CD database file
#
# Track frame offsets:
#	150
#	10105
#	34415
#	43535
#	58880
#	79612
#	101325
#	116267
#	126605
#	151670
#	167162
#	183545
#	198860
#	212165
#	223532
#
# Disc length: 3230 seconds
#
# Revision: 0
# Processed by: cddbd v1.4PL0 Copyright (c) Steve Scherf et al.
# Submitted via: CDex 1.50
#
DISCID=ca0c9c0f
DTITLE=Flying J Wranglers - Live...at the Ranch
DYEAR=1999
DGENRE=Country
TTITLE0=01 Ride Cowboy Ride
TTITLE1=02 Medley
TTITLE2=03 Texas Plains
TTITLE3=04 Yodeling Farmers Song
TTITLE4=05 Song For New Mexico
TTITLE5=06 EL Rancho Grande
TTITLE6=07 On the Wings of a Snow White Dove
TTITLE7=08 Cowboy Sweetheart
TTITLE8=09 Where the West Begins
TTITLE9=10 Blue Shadows on the Trail
TTITLE10=11 Billy the Kid
TTITLE11=12 Tumbleweed
TTITLE12=13 Glendale Trail
TTITLE13=14 Yodel Your Troubles Away
TTITLE14=Master's Call
EXTD=YEAR: 1999
EXTT0=
EXTT1=
EXTT2=
EXTT3=
EXTT4=
EXTT5=
EXTT6=
EXTT7=
EXTT8=
EXTT9=
EXTT10=
EXTT11=
EXTT12=
EXTT13=
EXTT14=
PLAYORDER=
